<svg width="221" height="29" viewBox="0 0 221 29" fill="none" xmlns="http://www.w3.org/2000/svg">
<path d="M159.39 10H158.685C158.528 10 158.393 9.96667 158.28 9.9C158.17 9.83 158.082 9.73667 158.015 9.62L156.285 7.14C156.192 7 156.088 6.9 155.975 6.84C155.862 6.77667 155.718 6.745 155.545 6.745H154.73V10H153.725V6.745H152.915C152.742 6.745 152.597 6.77667 152.48 6.84C152.367 6.9 152.265 7 152.175 7.14L150.445 9.62C150.378 9.73667 150.288 9.83 150.175 9.9C150.065 9.96667 149.933 10 149.78 10H149.07L151.135 6.91C151.242 6.72667 151.358 6.58167 151.485 6.475C151.615 6.365 151.765 6.28333 151.935 6.23C151.792 6.18 151.67 6.10833 151.57 6.015C151.47 5.92167 151.372 5.805 151.275 5.665L149.245 2.82H150.075C150.185 2.82 150.287 2.84833 150.38 2.905C150.477 2.95833 150.553 3.03333 150.61 3.13L152.325 5.565C152.428 5.71167 152.535 5.80833 152.645 5.855C152.758 5.90167 152.888 5.925 153.035 5.925H153.725V2.82H154.73V5.925H155.425C155.572 5.925 155.7 5.90167 155.81 5.855C155.923 5.80833 156.032 5.71167 156.135 5.565L157.85 3.13C157.907 3.03333 157.982 2.95833 158.075 2.905C158.172 2.84833 158.273 2.82 158.38 2.82H159.215L157.185 5.665C157.088 5.805 156.99 5.92167 156.89 6.015C156.79 6.10833 156.668 6.18 156.525 6.23C156.692 6.28667 156.84 6.36833 156.97 6.475C157.1 6.58167 157.218 6.72667 157.325 6.91L159.39 10ZM165.799 9.135L165.794 10H161.344V2.82H165.794V3.685H162.414V5.96H165.134V6.795H162.414V9.135H165.799ZM173.995 2.82V10H172.93V6.765H169.185V10H168.115V2.82H169.185V5.99H172.93V2.82H173.995ZM181.787 8.46C181.847 8.46 181.898 8.48333 181.942 8.53L182.362 8.99C182.068 9.33667 181.71 9.605 181.287 9.795C180.867 9.985 180.36 10.08 179.767 10.08C179.247 10.08 178.775 9.99 178.352 9.81C177.932 9.63 177.572 9.37833 177.272 9.055C176.975 8.73167 176.745 8.345 176.582 7.895C176.418 7.445 176.337 6.95 176.337 6.41C176.337 5.87 176.422 5.375 176.592 4.925C176.765 4.475 177.007 4.08833 177.317 3.765C177.627 3.44167 177.997 3.19 178.427 3.01C178.86 2.83 179.338 2.74 179.862 2.74C180.372 2.74 180.825 2.82333 181.222 2.99C181.618 3.15667 181.963 3.37833 182.257 3.655L181.907 4.15C181.883 4.18667 181.853 4.21667 181.817 4.24C181.783 4.26333 181.738 4.275 181.682 4.275C181.618 4.275 181.543 4.24333 181.457 4.18C181.373 4.11667 181.262 4.04667 181.122 3.97C180.985 3.89 180.815 3.81833 180.612 3.755C180.408 3.69167 180.155 3.66 179.852 3.66C179.495 3.66 179.168 3.72333 178.872 3.85C178.575 3.97333 178.318 4.15333 178.102 4.39C177.888 4.62333 177.722 4.91167 177.602 5.255C177.485 5.595 177.427 5.98 177.427 6.41C177.427 6.84667 177.488 7.235 177.612 7.575C177.735 7.915 177.905 8.20333 178.122 8.44C178.338 8.67667 178.593 8.85667 178.887 8.98C179.18 9.10333 179.497 9.165 179.837 9.165C180.043 9.165 180.228 9.15333 180.392 9.13C180.558 9.10333 180.71 9.065 180.847 9.015C180.987 8.965 181.118 8.90167 181.242 8.825C181.365 8.745 181.487 8.65 181.607 8.54C181.633 8.51667 181.662 8.49833 181.692 8.485C181.722 8.46833 181.753 8.46 181.787 8.46ZM190.257 10H189.302C189.195 10 189.105 9.97167 189.032 9.915C188.962 9.85833 188.895 9.77667 188.832 9.67L187.027 7.1C186.984 7.03333 186.939 6.97833 186.892 6.935C186.849 6.88833 186.8 6.85167 186.747 6.825C186.694 6.795 186.634 6.775 186.567 6.765C186.504 6.75167 186.429 6.745 186.342 6.745H185.497V10H184.432V2.82H185.497V5.925H186.222C186.369 5.925 186.494 5.90333 186.597 5.86C186.704 5.81333 186.805 5.72167 186.902 5.585L188.707 3.115C188.76 3.02833 188.824 2.95833 188.897 2.905C188.974 2.84833 189.065 2.82 189.172 2.82H190.072L187.957 5.75C187.874 5.87 187.779 5.97 187.672 6.05C187.565 6.12667 187.449 6.18833 187.322 6.235C187.502 6.28167 187.654 6.36 187.777 6.47C187.904 6.57667 188.025 6.725 188.142 6.915L190.257 10ZM198.079 2.82V10H197.014V5.06C197.014 4.91 197.018 4.75333 197.024 4.59C197.031 4.42333 197.048 4.25 197.074 4.07C197.011 4.23 196.946 4.37833 196.879 4.515C196.813 4.65167 196.746 4.77333 196.679 4.88L193.469 9.665C193.419 9.74833 193.353 9.825 193.269 9.895C193.189 9.965 193.098 10 192.994 10H192.199V2.82H193.269V7.76C193.269 7.91 193.264 8.06833 193.254 8.235C193.248 8.39833 193.233 8.57167 193.209 8.755C193.269 8.595 193.333 8.44667 193.399 8.31C193.466 8.17 193.533 8.04667 193.599 7.94L196.814 3.155C196.864 3.07167 196.929 2.995 197.009 2.925C197.089 2.855 197.181 2.82 197.284 2.82H198.079ZM206.736 2.82V10H205.671V5.06C205.671 4.91 205.674 4.75333 205.681 4.59C205.687 4.42333 205.704 4.25 205.731 4.07C205.667 4.23 205.602 4.37833 205.536 4.515C205.469 4.65167 205.402 4.77333 205.336 4.88L202.126 9.665C202.076 9.74833 202.009 9.825 201.926 9.895C201.846 9.965 201.754 10 201.651 10H200.856V2.82H201.926V7.76C201.926 7.91 201.921 8.06833 201.911 8.235C201.904 8.39833 201.889 8.57167 201.866 8.755C201.926 8.595 201.989 8.44667 202.056 8.31C202.122 8.17 202.189 8.04667 202.256 7.94L205.471 3.155C205.521 3.07167 205.586 2.995 205.666 2.925C205.746 2.855 205.837 2.82 205.941 2.82H206.736ZM203.831 1.86C203.964 1.86 204.076 1.84667 204.166 1.82C204.259 1.79 204.332 1.74333 204.386 1.68C204.442 1.61333 204.482 1.52833 204.506 1.425C204.532 1.31833 204.546 1.18667 204.546 1.03H205.121C205.187 1.03 205.239 1.06 205.276 1.12C205.312 1.18 205.331 1.24667 205.331 1.32C205.331 1.48667 205.296 1.635 205.226 1.765C205.159 1.89167 205.061 2 204.931 2.09C204.801 2.17667 204.642 2.24333 204.456 2.29C204.272 2.33667 204.064 2.36 203.831 2.36C203.597 2.36 203.387 2.33667 203.201 2.29C203.017 2.24333 202.861 2.17667 202.731 2.09C202.601 2 202.501 1.89167 202.431 1.765C202.364 1.635 202.331 1.48667 202.331 1.32C202.331 1.24667 202.349 1.18 202.386 1.12C202.422 1.06 202.474 1.03 202.541 1.03H203.116C203.116 1.18667 203.127 1.31833 203.151 1.425C203.177 1.52833 203.217 1.61333 203.271 1.68C203.327 1.74333 203.401 1.79 203.491 1.82C203.584 1.84667 203.697 1.86 203.831 1.86ZM154.9 20.46C154.96 20.46 155.012 20.4833 155.055 20.53L155.475 20.99C155.182 21.3367 154.823 21.605 154.4 21.795C153.98 21.985 153.473 22.08 152.88 22.08C152.36 22.08 151.888 21.99 151.465 21.81C151.045 21.63 150.685 21.3783 150.385 21.055C150.088 20.7317 149.858 20.345 149.695 19.895C149.532 19.445 149.45 18.95 149.45 18.41C149.45 17.87 149.535 17.375 149.705 16.925C149.878 16.475 150.12 16.0883 150.43 15.765C150.74 15.4417 151.11 15.19 151.54 15.01C151.973 14.83 152.452 14.74 152.975 14.74C153.485 14.74 153.938 14.8233 154.335 14.99C154.732 15.1567 155.077 15.3783 155.37 15.655L155.02 16.15C154.997 16.1867 154.967 16.2167 154.93 16.24C154.897 16.2633 154.852 16.275 154.795 16.275C154.732 16.275 154.657 16.2433 154.57 16.18C154.487 16.1167 154.375 16.0467 154.235 15.97C154.098 15.89 153.928 15.8183 153.725 15.755C153.522 15.6917 153.268 15.66 152.965 15.66C152.608 15.66 152.282 15.7233 151.985 15.85C151.688 15.9733 151.432 16.1533 151.215 16.39C151.002 16.6233 150.835 16.9117 150.715 17.255C150.598 17.595 150.54 17.98 150.54 18.41C150.54 18.8467 150.602 19.235 150.725 19.575C150.848 19.915 151.018 20.2033 151.235 20.44C151.452 20.6767 151.707 20.8567 152 20.98C152.293 21.1033 152.61 21.165 152.95 21.165C153.157 21.165 153.342 21.1533 153.505 21.13C153.672 21.1033 153.823 21.065 153.96 21.015C154.1 20.965 154.232 20.9017 154.355 20.825C154.478 20.745 154.6 20.65 154.72 20.54C154.747 20.5167 154.775 20.4983 154.805 20.485C154.835 20.4683 154.867 20.46 154.9 20.46ZM165.095 14.82V22H164.165V16.89C164.165 16.8133 164.167 16.7317 164.17 16.645C164.177 16.5583 164.183 16.47 164.19 16.38L161.8 20.765C161.717 20.9283 161.588 21.01 161.415 21.01H161.265C161.092 21.01 160.965 20.9283 160.885 20.765L158.45 16.365C158.47 16.5517 158.48 16.7267 158.48 16.89V22H157.545V14.82H158.335C158.428 14.82 158.5 14.83 158.55 14.85C158.603 14.8667 158.653 14.9167 158.7 15L161.1 19.3C161.147 19.3867 161.19 19.4783 161.23 19.575C161.27 19.6717 161.308 19.7683 161.345 19.865C161.415 19.6683 161.497 19.4783 161.59 19.295L163.945 15C163.988 14.9167 164.035 14.8667 164.085 14.85C164.138 14.83 164.212 14.82 164.305 14.82H165.095ZM174.561 18.41C174.561 18.9467 174.475 19.44 174.301 19.89C174.131 20.3367 173.89 20.7233 173.576 21.05C173.263 21.3733 172.888 21.625 172.451 21.805C172.015 21.985 171.53 22.075 170.996 22.075C170.466 22.075 169.981 21.985 169.541 21.805C169.105 21.625 168.73 21.3733 168.416 21.05C168.106 20.7233 167.865 20.3367 167.691 19.89C167.518 19.44 167.431 18.9467 167.431 18.41C167.431 17.8767 167.518 17.385 167.691 16.935C167.865 16.485 168.106 16.0983 168.416 15.775C168.73 15.4483 169.105 15.195 169.541 15.015C169.981 14.8317 170.466 14.74 170.996 14.74C171.53 14.74 172.015 14.8317 172.451 15.015C172.888 15.195 173.263 15.4483 173.576 15.775C173.89 16.0983 174.131 16.485 174.301 16.935C174.475 17.385 174.561 17.8767 174.561 18.41ZM173.471 18.41C173.471 17.9833 173.413 17.6 173.296 17.26C173.18 16.92 173.013 16.6317 172.796 16.395C172.583 16.1583 172.323 15.9767 172.016 15.85C171.713 15.7233 171.373 15.66 170.996 15.66C170.62 15.66 170.278 15.7233 169.971 15.85C169.668 15.9767 169.408 16.1583 169.191 16.395C168.975 16.6317 168.808 16.92 168.691 17.26C168.575 17.6 168.516 17.9833 168.516 18.41C168.516 18.84 168.575 19.225 168.691 19.565C168.808 19.9017 168.975 20.1883 169.191 20.425C169.408 20.6617 169.668 20.8433 169.971 20.97C170.278 21.0933 170.62 21.155 170.996 21.155C171.373 21.155 171.713 21.0933 172.016 20.97C172.323 20.8433 172.583 20.6617 172.796 20.425C173.013 20.1883 173.18 19.9017 173.296 19.565C173.413 19.225 173.471 18.84 173.471 18.41ZM182.724 22H181.769C181.662 22 181.572 21.9717 181.499 21.915C181.429 21.8583 181.362 21.7767 181.299 21.67L179.494 19.1C179.45 19.0333 179.405 18.9783 179.359 18.935C179.315 18.8883 179.267 18.8517 179.214 18.825C179.16 18.795 179.1 18.775 179.034 18.765C178.97 18.7517 178.895 18.745 178.809 18.745H177.964V22H176.899V14.82H177.964V17.925H178.689C178.835 17.925 178.96 17.9033 179.064 17.86C179.17 17.8133 179.272 17.7217 179.369 17.585L181.174 15.115C181.227 15.0283 181.29 14.9583 181.364 14.905C181.44 14.8483 181.532 14.82 181.639 14.82H182.539L180.424 17.75C180.34 17.87 180.245 17.97 180.139 18.05C180.032 18.1267 179.915 18.1883 179.789 18.235C179.969 18.2817 180.12 18.36 180.244 18.47C180.37 18.5767 180.492 18.725 180.609 18.915L182.724 22ZM190.546 14.82V22H189.481V17.06C189.481 16.91 189.485 16.7533 189.491 16.59C189.498 16.4233 189.515 16.25 189.541 16.07C189.478 16.23 189.413 16.3783 189.346 16.515C189.28 16.6517 189.213 16.7733 189.146 16.88L185.936 21.665C185.886 21.7483 185.82 21.825 185.736 21.895C185.656 21.965 185.565 22 185.461 22H184.666V14.82H185.736V19.76C185.736 19.91 185.731 20.0683 185.721 20.235C185.715 20.3983 185.7 20.5717 185.676 20.755C185.736 20.595 185.8 20.4467 185.866 20.31C185.933 20.17 186 20.0467 186.066 19.94L189.281 15.155C189.331 15.0717 189.396 14.995 189.476 14.925C189.556 14.855 189.648 14.82 189.751 14.82H190.546ZM199.203 14.82V22H198.138V18.765H194.393V22H193.323V14.82H194.393V17.99H198.138V14.82H199.203ZM206.329 15.655H203.049V22H201.979V14.82H206.329V15.655Z" fill="#8D8D8D"/>
<path d="M0 28.189L2.90476 26.5611V4.98531L0 3.33902V3H18.2148V9.48798H18.0504L14.9813 3.76262H6.66853V15.0558H12.0583L14.1957 11.7939H14.5005V19.1713H14.1957L12.0583 15.8184H6.66853V27.7654H16.1993L20.1943 22.0219L20.3526 22.04L19.4088 28.528H0.000343002L0 28.189Z" fill="black"/>
<path d="M37.9508 3H28V3.33902L30.9048 4.98531V26.5611L28 28.189V28.528H46.0872L47.0309 22.04L46.8727 22.0219L42.8776 27.7654H34.6685V4.98531L37.9508 3.33902V3Z" fill="black"/>
<path d="M57.9048 26.5611L55 28.189V28.528H74.4088L75.3529 22.04L75.1943 22.0219L71.1993 27.7654H61.6685V15.8184H67.058L69.1957 19.1713H69.5005V11.7939H69.1957L67.058 15.0558H61.6685V3.76262H69.9813L73.0504 9.48798H73.2148V3H55V3.33902L57.9048 4.98531V26.5611Z" fill="black"/>
<path d="M123.723 28.2074L120.727 26.2947L120.728 6.72846L137.03 29L138.157 28.528V5.23325L141.153 3.32093V3.00033H134.356V3.32093L137.353 5.23325V23.3534L122.475 3H117V3.33901L119.96 4.9853V26.2947L117 28.2074V28.528H123.723V28.2074Z" fill="black"/>
<path d="M94.3452 20.1761V19.4135H99.004L94.3452 6.38331V3.00033H96.9699L105.709 26.5614L108.723 28.1893V28.5283H98.6996V28.1893L101.574 26.5433L99.2902 20.1764L94.3452 20.1761ZM94.3452 3.00033V6.38331L89.6867 19.4135H94.3452V20.1761H89.4005L87.1348 26.543H87.1533L90.9047 28.189V28.528H83V28.189L86.191 26.5611L93.7185 5.7295L92.0252 3.33901V3L94.3452 3.00033Z" fill="black"/>
</svg>
