<svg width="18" height="19" viewBox="0 0 18 19" fill="none" xmlns="http://www.w3.org/2000/svg">
<path fill-rule="evenodd" clip-rule="evenodd" d="M5.59322 18.0494C2.52563 18.0494 0 15.5259 0 12.4346V5.61474C0 2.5227 2.52563 0 5.59322 0H12.3364C15.426 0 17.9296 2.5227 17.9296 5.61474V12.4346C17.9296 15.5259 15.426 18.0494 12.3364 18.0494H5.59322ZM1.82719 5.61556V12.4355C1.82719 14.5266 3.51827 16.2314 5.59322 16.2314H12.3364C14.4105 16.2314 16.1024 14.5266 16.1024 12.4355V5.61556C16.1024 3.52439 14.4105 1.81962 12.3364 1.81962H5.59322C3.51827 1.81962 1.82719 3.52439 1.82719 5.61556Z" fill="#2F2F2F"/>
<path fill-rule="evenodd" clip-rule="evenodd" d="M4.30737 9.02549C4.30737 6.43393 6.40432 4.32065 8.97558 4.32065C11.5469 4.32065 13.6218 6.43393 13.6218 9.02549C13.6218 11.6162 11.5469 13.7303 8.97558 13.7303C6.40432 13.7303 4.30737 11.6162 4.30737 9.02549ZM6.15657 9.02549C6.15657 10.594 7.41897 11.8664 8.97558 11.8664C10.5094 11.8664 11.7726 10.594 11.7726 9.02549C11.7726 7.45694 10.5094 6.18372 8.97558 6.18372C7.41897 6.18372 6.15657 7.45694 6.15657 9.02549Z" fill="#2F2F2F"/>
<path fill-rule="evenodd" clip-rule="evenodd" d="M13.8474 5.52452C13.0813 5.52452 12.4497 4.88874 12.4497 4.11597C12.4497 3.3194 13.0813 2.68362 13.8474 2.68362C14.6143 2.68362 15.2459 3.3194 15.2459 4.11597C15.2459 4.88874 14.6143 5.52452 13.8474 5.52452Z" fill="#2F2F2F"/>
</svg>
