<svg width="20" height="22" viewBox="0 0 20 22" fill="none" xmlns="http://www.w3.org/2000/svg">
<path d="M3.67929 20.8607H0.499023V4.5029H3.73406" stroke="#333333" stroke-miterlimit="3.8637"/>
<path d="M5.89075 5.18856C5.89075 5.18856 5.89075 5.36384 5.89075 3.76822C5.89075 2.17355 7.0977 0.880859 8.58661 0.880859C10.0755 0.880859 11.2825 2.17355 11.2825 3.76822C11.2825 5.36288 11.2825 5.18856 11.2825 5.18856" stroke="#333333" stroke-miterlimit="3.8637"/>
<path d="M3.75879 4.5029H19.499V20.8607H3.75879V4.5029Z" fill="#E1C4A9"/>
<path d="M3.75879 4.5029H19.499V20.8607H3.75879V4.5029Z" stroke="black" stroke-miterlimit="3.8637"/>
<path d="M9.12579 6.27259C9.12579 6.27259 9.12579 4.90562 9.12579 3.47365C9.12579 2.04167 10.3328 0.880859 11.8217 0.880859C13.3106 0.880859 14.5175 2.04167 14.5175 3.47365C14.5175 4.90562 14.5175 6.27259 14.5175 6.27259" stroke="#333333" stroke-miterlimit="3.8637"/>
</svg>
